<?xml version="1.0" standalone="no"?>
<svg xmlns:xlink="http://www.w3.org/1999/xlink" id="wave" style="transform:rotate(0deg); transition: 0.3s" viewBox="0 0 1440 100" version="1.1" xmlns="http://www.w3.org/2000/svg"><defs><linearGradient id="sw-gradient-0" x1="0" x2="0" y1="1" y2="0"><stop stop-color="rgba(0, 94.044, 205.366, 1)" offset="0%"/><stop stop-color="rgba(11, 197.134, 255, 1)" offset="100%"/></linearGradient></defs><path style="transform:translate(0, 0px); opacity:1" fill="url(#sw-gradient-0)" d="M0,50L20,46.7C40,43,80,37,120,31.7C160,27,200,23,240,23.3C280,23,320,27,360,33.3C400,40,440,50,480,53.3C520,57,560,53,600,45C640,37,680,23,720,23.3C760,23,800,37,840,48.3C880,60,920,70,960,63.3C1000,57,1040,33,1080,25C1120,17,1160,23,1200,36.7C1240,50,1280,70,1320,76.7C1360,83,1400,77,1440,71.7C1480,67,1520,63,1560,65C1600,67,1640,73,1680,76.7C1720,80,1760,80,1800,68.3C1840,57,1880,33,1920,26.7C1960,20,2000,30,2040,35C2080,40,2120,40,2160,43.3C2200,47,2240,53,2280,46.7C2320,40,2360,20,2400,25C2440,30,2480,60,2520,60C2560,60,2600,30,2640,28.3C2680,27,2720,53,2760,53.3C2800,53,2840,27,2860,13.3L2880,0L2880,100L2860,100C2840,100,2800,100,2760,100C2720,100,2680,100,2640,100C2600,100,2560,100,2520,100C2480,100,2440,100,2400,100C2360,100,2320,100,2280,100C2240,100,2200,100,2160,100C2120,100,2080,100,2040,100C2000,100,1960,100,1920,100C1880,100,1840,100,1800,100C1760,100,1720,100,1680,100C1640,100,1600,100,1560,100C1520,100,1480,100,1440,100C1400,100,1360,100,1320,100C1280,100,1240,100,1200,100C1160,100,1120,100,1080,100C1040,100,1000,100,960,100C920,100,880,100,840,100C800,100,760,100,720,100C680,100,640,100,600,100C560,100,520,100,480,100C440,100,400,100,360,100C320,100,280,100,240,100C200,100,160,100,120,100C80,100,40,100,20,100L0,100Z"/></svg>