<?xml version="1.0" standalone="no"?>
<svg xmlns:xlink="http://www.w3.org/1999/xlink" id="wave" style="transform:rotate(180deg); transition: 0.3s" viewBox="0 0 1440 100" version="1.1" xmlns="http://www.w3.org/2000/svg"><defs><linearGradient id="sw-gradient-0" x1="0" x2="0" y1="1" y2="0"><stop stop-color="rgba(0, 94.044, 205.366, 1)" offset="0%"/><stop stop-color="rgba(11, 197.134, 255, 1)" offset="100%"/></linearGradient></defs><path style="transform:translate(0, 0px); opacity:1" fill="url(#sw-gradient-0)" d="M0,60L20,65C40,70,80,80,120,76.7C160,73,200,57,240,43.3C280,30,320,20,360,23.3C400,27,440,43,480,46.7C520,50,560,40,600,31.7C640,23,680,17,720,23.3C760,30,800,50,840,51.7C880,53,920,37,960,26.7C1000,17,1040,13,1080,18.3C1120,23,1160,37,1200,48.3C1240,60,1280,70,1320,68.3C1360,67,1400,53,1440,48.3C1480,43,1520,47,1560,40C1600,33,1640,17,1680,23.3C1720,30,1760,60,1800,60C1840,60,1880,30,1920,30C1960,30,2000,60,2040,71.7C2080,83,2120,77,2160,71.7C2200,67,2240,63,2280,63.3C2320,63,2360,67,2400,66.7C2440,67,2480,63,2520,58.3C2560,53,2600,47,2640,45C2680,43,2720,47,2760,43.3C2800,40,2840,30,2860,25L2880,20L2880,100L2860,100C2840,100,2800,100,2760,100C2720,100,2680,100,2640,100C2600,100,2560,100,2520,100C2480,100,2440,100,2400,100C2360,100,2320,100,2280,100C2240,100,2200,100,2160,100C2120,100,2080,100,2040,100C2000,100,1960,100,1920,100C1880,100,1840,100,1800,100C1760,100,1720,100,1680,100C1640,100,1600,100,1560,100C1520,100,1480,100,1440,100C1400,100,1360,100,1320,100C1280,100,1240,100,1200,100C1160,100,1120,100,1080,100C1040,100,1000,100,960,100C920,100,880,100,840,100C800,100,760,100,720,100C680,100,640,100,600,100C560,100,520,100,480,100C440,100,400,100,360,100C320,100,280,100,240,100C200,100,160,100,120,100C80,100,40,100,20,100L0,100Z"/></svg>